# xmcd CD database file
#
# Track frame offsets:
#	150
#	10876
#	21056
#	34025
#	43659
#	63409
#	81408
#	91296
#	101275
#	117958
#	132639
#	148234
#	160654
#	173774
#	184712
#	197240
#	210260
#
# Disc length: 2921 seconds
#
# Revision: 0
# Processed by: cddbd v1.5.2PL0 Copyright (c) Steve Scherf et al.
# Submitted via: CDex 1.81
#
DISCID=e30b6711
DTITLE=Marty Robbins  - The Complete US Hits 1952-62 [CD2]
DYEAR=2014
DGENRE=Country
TTITLE0=She Was Only Seventeen (He Was One Year More)
TTITLE1=Aint I The Lucky One
TTITLE2=The Hanging Tree
TTITLE3=Cap And Gown
TTITLE4=El Paso
TTITLE5=Big Iron
TTITLE6=Is There Any Chance
TTITLE7=Five Brothers
TTITLE8=Ballad Of The Alamo
TTITLE9=Dont Worry
TTITLE10=Jimmy Martinez
TTITLE11=It's Your World
TTITLE12=I Told The Brook.
TTITLE13=Sometimes I'm Tempted.
TTITLE14=Love Cant Wait
TTITLE15=Devil Woman
TTITLE16=Ruby Ann
EXTD=YEAR: 2014
EXTT0=
EXTT1=
EXTT2=
EXTT3=
EXTT4=
EXTT5=
EXTT6=
EXTT7=
EXTT8=
EXTT9=
EXTT10=
EXTT11=
EXTT12=
EXTT13=
EXTT14=
EXTT15=
EXTT16=
PLAYORDER=
